<svg width="511" height="219" viewBox="0 0 511 219" fill="none" xmlns="http://www.w3.org/2000/svg">
<path d="M0 114.24C0 108.585 4.5846 104 10.24 104H115.2C120.855 104 125.44 108.585 125.44 114.24V218.56H0V114.24Z" fill="#E9F4FF"/>
<path d="M103.88 10.24C103.88 4.58461 108.464 0 114.12 0H219.08C224.735 0 229.32 4.5846 229.32 10.24V144H103.88V10.24Z" fill="#E9F4FF"/>
<path d="M402.76 131.201C402.76 125.546 407.344 120.961 413 120.961H517.96C523.615 120.961 528.2 125.546 528.2 131.201V218.241H402.76V131.201Z" fill="#E9F4FF"/>
<path d="M326.6 64.223C326.6 62.1506 327.849 60.2826 329.765 59.4911L387.365 35.6871C388.617 35.1695 390.023 35.1695 391.276 35.6871L448.876 59.4911C450.791 60.2826 452.04 62.1506 452.04 64.223V218.239H326.6V64.223Z" fill="#F96C44"/>
<path d="M75.7202 71.0408C75.7202 65.3854 80.3048 60.8008 85.9602 60.8008H190.92C196.576 60.8008 201.16 65.3854 201.16 71.0408V218.241H75.7202V71.0408Z" fill="#C4D5F5"/>
<path d="M201.16 102.399C201.16 99.5716 203.452 97.2793 206.28 97.2793H321.48C324.308 97.2793 326.6 99.5716 326.6 102.399V218.239H201.16V102.399Z" fill="#1C7EC7"/>
<rect x="201.16" y="19.1992" width="125.44" height="117.12" rx="10.24" fill="#1C7EC7"/>
<rect x="89.7998" y="76.1602" width="44.8" height="21.12" rx="5.12" fill="#DAE4F9"/>
<rect x="89.7998" y="106.24" width="44.8" height="21.12" rx="5.12" fill="#DAE4F9"/>
<rect x="89.7998" y="136.32" width="44.8" height="21.12" rx="5.12" fill="#DAE4F9"/>
<rect x="89.7998" y="166.4" width="44.8" height="21.12" rx="5.12" fill="#DAE4F9"/>
<rect x="142.28" y="76.1602" width="44.8" height="21.12" rx="5.12" fill="#DAE4F9"/>
<rect x="343.88" y="76.1602" width="90.88" height="21.12" rx="5.12" fill="#F88652"/>
<rect x="343.88" y="106.24" width="90.88" height="21.12" rx="5.12" fill="#F88652"/>
<rect x="343.88" y="136.32" width="90.88" height="21.12" rx="5.12" fill="#F88652"/>
<rect x="343.88" y="166.4" width="90.88" height="21.12" rx="5.12" fill="#F88652"/>
<rect x="142.28" y="106.24" width="44.8" height="21.12" rx="5.12" fill="#DAE4F9"/>
<rect x="142.28" y="136.32" width="44.8" height="21.12" rx="5.12" fill="#DAE4F9"/>
<rect x="142.28" y="166.4" width="44.8" height="21.12" rx="5.12" fill="#DAE4F9"/>
<path d="M216.521 56.9601C216.521 49.8909 222.251 44.1602 229.321 44.1602C236.39 44.1602 242.121 49.8909 242.121 56.9602V72.3202C242.121 75.1479 239.828 77.4402 237.001 77.4402H221.641C218.813 77.4402 216.521 75.1479 216.521 72.3202V56.9601Z" fill="#2C93E0"/>
<path d="M216.521 100.48C216.521 93.4104 222.251 87.6797 229.321 87.6797C236.39 87.6797 242.121 93.4104 242.121 100.48V115.84C242.121 118.667 239.828 120.96 237.001 120.96H221.641C218.813 120.96 216.521 118.667 216.521 115.84V100.48Z" fill="#2C93E0"/>
<path d="M216.521 143.999C216.521 136.93 222.251 131.199 229.321 131.199C236.39 131.199 242.121 136.93 242.121 143.999V159.359C242.121 162.187 239.828 164.479 237.001 164.479H221.641C218.813 164.479 216.521 162.187 216.521 159.359V143.999Z" fill="#2C93E0"/>
<path d="M251.08 56.9601C251.08 49.8909 256.81 44.1602 263.88 44.1602C270.949 44.1602 276.68 49.8909 276.68 56.9602V72.3202C276.68 75.1479 274.387 77.4402 271.56 77.4402H256.2C253.372 77.4402 251.08 75.1479 251.08 72.3202V56.9601Z" fill="#2C93E0"/>
<path d="M251.08 100.48C251.08 93.4104 256.81 87.6797 263.88 87.6797C270.949 87.6797 276.68 93.4104 276.68 100.48V115.84C276.68 118.667 274.387 120.96 271.56 120.96H256.2C253.372 120.96 251.08 118.667 251.08 115.84V100.48Z" fill="#2C93E0"/>
<path d="M251.08 143.999C251.08 136.93 256.81 131.199 263.88 131.199C270.949 131.199 276.68 136.93 276.68 143.999V159.359C276.68 162.187 274.387 164.479 271.56 164.479H256.2C253.372 164.479 251.08 162.187 251.08 159.359V143.999Z" fill="#2C93E0"/>
<path d="M285.64 56.9601C285.64 49.8909 291.371 44.1602 298.44 44.1602C305.509 44.1602 311.24 49.8909 311.24 56.9602V72.3202C311.24 75.1479 308.948 77.4402 306.12 77.4402H290.76C287.932 77.4402 285.64 75.1479 285.64 72.3202V56.9601Z" fill="#2C93E0"/>
<path d="M285.64 100.48C285.64 93.4104 291.37 87.6797 298.44 87.6797C305.509 87.6797 311.24 93.4104 311.24 100.48V115.84C311.24 118.667 308.947 120.96 306.12 120.96H290.76C287.932 120.96 285.64 118.667 285.64 115.84V100.48Z" fill="#2C93E0"/>
<path d="M285.64 143.999C285.64 136.93 291.371 131.199 298.44 131.199C305.509 131.199 311.24 136.93 311.24 143.999V159.359C311.24 162.187 308.948 164.479 306.12 164.479H290.76C287.932 164.479 285.64 162.187 285.64 159.359V143.999Z" fill="#2C93E0"/>
</svg>
