<svg width="467" height="264" viewBox="0 0 467 264" fill="none" xmlns="http://www.w3.org/2000/svg">
<circle cx="433" cy="259" r="31" fill="#242945"/>
<path d="M51 103C51 85.3269 65.3269 71 83 71H150V234C150 242.837 142.837 250 134 250H83C65.3269 250 51 235.673 51 218V103Z" fill="#E9F4FF"/>
<path d="M18 157C18 139.327 32.3269 125 50 125H101V234C101 242.837 93.8366 250 85 250H50C32.3269 250 18 235.673 18 218V157Z" fill="#E9F4FF"/>
<path d="M150 20C150 8.9543 158.954 0 170 0H466C477.046 0 486 8.9543 486 20V234C486 242.837 478.837 250 470 250H166C157.163 250 150 242.837 150 234V20Z" fill="#1B92FF"/>
<circle cx="90" cy="259" r="31" fill="#242945"/>
<circle cx="248" cy="120.6" r="32" fill="#F5FAFF"/>
<mask id="mask0_1_1687" style="mask-type:alpha" maskUnits="userSpaceOnUse" x="248" y="88" width="32" height="74">
<rect width="32" height="72.8" transform="matrix(1 0 0 -1 248 161.4)" fill="#D9D9D9"/>
</mask>
<g mask="url(#mask0_1_1687)">
<path d="M216 120.6C216 147 248 161.4 248 161.4C248 161.4 280 147 280 120.6C280 102.926 265.673 88.5996 248 88.5996C230.327 88.5996 216 102.926 216 120.6Z" fill="#F5FAFF"/>
</g>
<rect x="256.065" y="108.453" width="8.96" height="24.32" rx="4.48" fill="#4DA9FF"/>
<rect x="240.504" y="108.498" width="8.96" height="24.32" rx="4.48" fill="#4DA9FF"/>
<rect opacity="0.8" x="245" y="106.623" width="8.96" height="30.8215" rx="4.48" transform="rotate(45.4799 245 106.623)" fill="#4DA9FF"/>
<rect opacity="0.8" x="266.779" y="116.068" width="8.83689" height="17.4077" rx="4.41844" transform="rotate(45.4799 266.779 116.068)" fill="#4DA9FF"/>
<rect opacity="0.8" x="260.561" y="106.578" width="9.06325" height="30.7102" rx="4.53162" transform="rotate(45.4799 260.561 106.578)" fill="#4DA9FF"/>
<path d="M361.931 126.057C360.693 126.014 359.668 125.886 358.857 125.673C358.088 125.417 357.469 125.075 357 124.648C356.53 124.179 356.189 123.602 355.975 122.919C355.804 122.193 355.698 121.34 355.655 120.358C355.655 119.973 355.634 119.354 355.591 118.5C355.591 117.604 355.591 116.622 355.591 115.555C355.591 114.445 355.57 113.292 355.527 112.097C355.527 110.901 355.527 109.748 355.527 108.638C355.527 107.528 355.527 106.547 355.527 105.693C355.527 104.839 355.527 104.198 355.527 103.772C355.527 102.192 355.954 101.018 356.808 100.249C357.704 99.4382 358.793 99.0326 360.074 99.0326C361.44 99.0326 362.55 99.4382 363.404 100.249C364.3 101.018 364.748 102.213 364.748 103.836V106.333C365.56 106.333 366.52 106.333 367.63 106.333C368.74 106.333 369.872 106.333 371.024 106.333C372.177 106.333 373.308 106.333 374.418 106.333C375.528 106.333 376.489 106.333 377.3 106.333V103.451C377.3 101.957 377.748 100.847 378.645 100.121C379.541 99.3955 380.651 99.0326 381.975 99.0326C383.256 99.0326 384.344 99.3742 385.241 100.057C386.137 100.74 386.586 101.786 386.586 103.195C386.586 103.75 386.586 104.839 386.586 106.461C386.628 108.041 386.65 109.748 386.65 111.584C386.65 113.42 386.65 115.17 386.65 116.835C386.65 118.458 386.628 119.589 386.586 120.23C386.543 121.211 386.415 122.065 386.202 122.791C385.988 123.474 385.625 124.051 385.113 124.52C384.601 124.947 383.896 125.289 383 125.545C382.103 125.801 380.929 125.95 379.477 125.993C378.367 126.078 377.065 126.142 375.571 126.185C374.12 126.185 372.604 126.207 371.024 126.249C369.487 126.249 367.929 126.249 366.349 126.249C364.77 126.207 363.297 126.142 361.931 126.057ZM364.748 117.22C364.791 117.903 364.919 118.308 365.133 118.436C365.346 118.565 365.816 118.65 366.542 118.693C367.908 118.735 369.359 118.757 370.896 118.757C372.433 118.757 373.821 118.714 375.059 118.629C375.528 118.586 375.913 118.565 376.211 118.565C376.51 118.522 376.745 118.479 376.916 118.436C377.087 118.351 377.193 118.223 377.236 118.052C377.321 117.839 377.364 117.561 377.364 117.22V113.313C376.553 113.313 375.592 113.313 374.482 113.313C373.372 113.271 372.22 113.249 371.024 113.249C369.872 113.249 368.74 113.271 367.63 113.313C366.52 113.313 365.56 113.313 364.748 113.313V117.22ZM372.881 140.21C372.881 138.289 373.223 136.559 373.906 135.023C374.632 133.486 375.614 132.183 376.852 131.116C378.133 130.049 379.67 129.238 381.463 128.683C383.256 128.128 385.241 127.85 387.418 127.85C389.425 127.85 391.261 128.128 392.926 128.683C394.633 129.238 396.085 130.049 397.28 131.116C398.518 132.183 399.479 133.486 400.162 135.023C400.845 136.517 401.187 138.246 401.187 140.21C401.187 141.96 400.866 143.582 400.226 145.077C399.628 146.571 398.732 147.873 397.536 148.983C396.341 150.093 394.889 150.968 393.182 151.609C391.517 152.249 389.596 152.569 387.418 152.569C385.241 152.569 383.256 152.249 381.463 151.609C379.712 150.968 378.197 150.093 376.916 148.983C375.635 147.873 374.632 146.571 373.906 145.077C373.223 143.582 372.881 141.96 372.881 140.21ZM382.359 140.082C382.359 141.32 382.807 142.344 383.704 143.155C384.601 143.924 385.775 144.308 387.226 144.308C388.72 144.308 389.916 143.924 390.812 143.155C391.752 142.344 392.221 141.32 392.221 140.082C392.221 138.715 391.773 137.669 390.876 136.944C389.98 136.175 388.763 135.791 387.226 135.791C385.775 135.791 384.601 136.154 383.704 136.88C382.807 137.563 382.359 138.63 382.359 140.082ZM395.487 102.875C395.402 101.082 395.743 99.737 396.512 98.8405C397.323 97.9013 398.518 97.4316 400.098 97.4316C401.55 97.4316 402.724 97.8799 403.62 98.7765C404.559 99.6303 405.072 101.082 405.157 103.131C405.242 105.308 405.285 107.251 405.285 108.959C405.328 110.624 405.349 112.203 405.349 113.698C405.349 115.149 405.328 116.537 405.285 117.86C405.285 119.184 405.264 120.55 405.221 121.959C405.136 124.008 404.687 125.63 403.876 126.826C403.065 128.021 401.848 128.619 400.226 128.619C398.604 128.619 397.408 128.149 396.64 127.21C395.914 126.228 395.615 124.648 395.743 122.471C395.786 121.361 395.807 120.016 395.807 118.436C395.85 116.857 395.85 115.192 395.807 113.441C395.807 111.648 395.765 109.834 395.679 107.998C395.637 106.162 395.573 104.455 395.487 102.875Z" fill="#F5FAFF"/>
<path d="M326.137 152.185C324.899 152.185 323.725 151.758 322.615 150.904C321.547 150.05 320.971 148.791 320.886 147.126C320.886 146.613 320.864 145.994 320.822 145.269C320.822 144.543 320.8 143.753 320.758 142.899C320.758 142.045 320.758 141.149 320.758 140.209C320.758 139.27 320.758 138.331 320.758 137.392C317.641 137.349 314.61 137.285 311.664 137.2C308.761 137.114 306.135 136.965 303.787 136.751C301.823 136.581 300.457 136.111 299.689 135.342C298.92 134.531 298.579 133.507 298.664 132.269C298.75 131.031 299.155 130.027 299.881 129.259C300.649 128.448 302.058 128.085 304.107 128.17C307.566 128.298 311.152 128.405 314.866 128.49C318.623 128.533 322.359 128.554 326.073 128.554C329.83 128.554 333.544 128.533 337.216 128.49C340.887 128.405 344.388 128.277 347.718 128.106C349.895 128.021 351.411 128.426 352.265 129.323C353.161 130.177 353.61 131.265 353.61 132.589C353.61 133.827 353.268 134.787 352.585 135.471C351.945 136.111 350.813 136.517 349.191 136.687C347.312 136.901 344.815 137.072 341.698 137.2C338.625 137.285 335.252 137.349 331.58 137.392C331.538 138.758 331.495 140.167 331.452 141.618C331.452 143.027 331.452 144.308 331.452 145.461C331.452 146.613 331.281 147.595 330.94 148.406C330.641 149.26 330.235 149.965 329.723 150.52C329.253 151.075 328.698 151.48 328.058 151.736C327.418 152.035 326.777 152.185 326.137 152.185ZM304.364 115.618C304.364 113.996 304.364 112.651 304.364 111.584C304.364 110.517 304.364 109.599 304.364 108.83C304.406 108.019 304.428 107.293 304.428 106.653C304.47 106.013 304.534 105.287 304.62 104.476C304.748 103.067 305.196 102.021 305.965 101.338C306.733 100.612 307.993 100.228 309.743 100.185C312.433 100.142 315.186 100.1 318.004 100.057C320.864 100.014 323.703 99.993 326.521 99.993C329.339 99.9503 332.093 99.9503 334.782 99.993C337.472 99.993 340.012 100.057 342.403 100.185C344.153 100.27 345.413 100.655 346.181 101.338C346.95 102.021 347.398 103.067 347.526 104.476C347.569 105.287 347.611 106.013 347.654 106.653C347.697 107.293 347.718 108.019 347.718 108.83C347.761 109.599 347.782 110.517 347.782 111.584C347.782 112.651 347.782 113.996 347.782 115.618C347.782 117.155 347.675 118.458 347.462 119.525C347.291 120.549 346.907 121.403 346.309 122.086C345.711 122.727 344.858 123.218 343.748 123.559C342.638 123.901 341.143 124.136 339.265 124.264C337.643 124.349 335.743 124.413 333.565 124.456C331.388 124.499 329.104 124.52 326.713 124.52C324.322 124.52 321.91 124.499 319.477 124.456C317.086 124.413 314.887 124.37 312.881 124.328C311.002 124.285 309.508 124.093 308.398 123.751C307.288 123.41 306.434 122.898 305.837 122.214C305.239 121.489 304.833 120.592 304.62 119.525C304.449 118.458 304.364 117.155 304.364 115.618ZM314.034 109.791C313.991 110.602 313.969 111.264 313.969 111.776C314.012 112.246 314.055 112.886 314.098 113.697C314.183 114.594 314.375 115.192 314.674 115.49C315.015 115.789 315.677 115.96 316.659 116.003C317.897 116.045 319.327 116.088 320.95 116.131C322.615 116.131 324.301 116.131 326.009 116.131C327.759 116.131 329.467 116.131 331.132 116.131C332.797 116.088 334.249 116.045 335.487 116.003C336.469 115.96 337.109 115.789 337.408 115.49C337.749 115.192 337.963 114.594 338.048 113.697C338.091 112.886 338.112 112.246 338.112 111.776C338.155 111.264 338.155 110.602 338.112 109.791C338.07 109.321 337.963 109.001 337.792 108.83C337.664 108.66 337.322 108.553 336.767 108.51C335.657 108.425 334.12 108.382 332.157 108.382C330.235 108.339 328.208 108.318 326.073 108.318C323.981 108.318 321.953 108.339 319.989 108.382C318.025 108.425 316.488 108.467 315.378 108.51C314.823 108.553 314.46 108.66 314.29 108.83C314.162 109.001 314.076 109.321 314.034 109.791Z" fill="#F5FAFF"/>
<path d="M61 105C61 91.7452 71.7452 81 85 81H132C136.418 81 140 84.5817 140 89V128C140 132.418 136.418 136 132 136H69C64.5817 136 61 132.418 61 128V105Z" fill="#242945"/>
<circle cx="18" cy="188" r="18" fill="#1B92FF"/>
</svg>
