<svg width="366" height="304" viewBox="0 0 366 304" fill="none" xmlns="http://www.w3.org/2000/svg">
<path d="M180.081 164.636C262.863 134.395 351.589 85.566 412 43.1999L463.55 7.04809C467.791 4.0737 473.6 7.12499 473.6 12.3053V163.062C473.6 165.154 472.571 167.121 470.847 168.305C356.175 247.033 217.86 261.441 200.4 241.6C187.512 226.955 179.227 191.533 175.973 171.529C175.487 168.539 177.236 165.675 180.081 164.636Z" fill="#4DA9FF"/>
<rect x="21.5994" y="246.4" width="32" height="38.4" rx="12.8" fill="#242945"/>
<rect x="160.799" y="246.4" width="32" height="38.4" rx="12.8" fill="#242945"/>
<rect x="-0.000732422" y="73.5996" width="214.4" height="192" rx="6.4" fill="#F96C44"/>
<rect x="8.79932" y="86.4004" width="196.8" height="76.8" rx="6.4" fill="#F78956"/>
<rect x="8.79932" y="176" width="196.8" height="76.8" rx="6.4" fill="#F78956"/>
<rect x="53.5994" y="136.799" width="107.2" height="52.8" rx="3.2" fill="#F7C056"/>
<rect x="84.7993" y="208.799" width="44.8" height="12.8" rx="3.2" fill="#F96C44"/>
<path fill-rule="evenodd" clip-rule="evenodd" d="M146.21 233.596C126.331 233.947 85.6256 239.874 69.7945 261.44C68.1868 264.074 66.6981 268.802 68.4844 273.259C61.2466 277.29 55.3657 284.487 65.1616 294.5C68.6765 298.093 82.3619 299.632 101.808 299.632C103.206 299.908 104.751 300.26 106.44 300.645C121.19 304.007 146.829 309.85 180 288.512V258.4H172.397C172.212 257.89 171.911 257.408 171.486 256.989L148.911 234.692C148.189 233.98 147.223 233.578 146.21 233.596Z" fill="#F4C7A9"/>
<path d="M68.7998 272.801C73.5652 275.819 82.3998 281.601 107.2 272.801" stroke="#ECB087" stroke-width="3.2"/>
<path d="M145.899 228.335L158.866 225.188C161.737 224.491 164.712 225.85 166.065 228.477L195.139 284.919C196.881 288.301 195.305 292.465 191.697 293.668C178.711 297.997 170.164 298.685 165.933 298.313C164.506 298.187 163.303 297.287 162.5 296.1C143.529 268.053 141.547 248.017 140.994 234.815C140.867 231.767 142.934 229.055 145.899 228.335Z" fill="#E9F4FF"/>
<path d="M160.081 219.036C242.863 188.796 331.589 139.966 392 97.6003L443.55 61.4485C447.791 58.4741 453.6 61.5254 453.6 66.7057V217.462C453.6 219.554 452.571 221.522 450.847 222.706C336.175 301.433 197.86 315.841 180.4 296C167.512 281.356 159.227 245.934 155.973 225.929C155.487 222.939 157.236 220.076 160.081 219.036Z" fill="#1B92FF"/>
</svg>
