<svg width="28" height="28" viewBox="0 0 28 28" fill="none" xmlns="http://www.w3.org/2000/svg">
<g clip-path="url(#clip0_3285_13075)">
<path fill-rule="evenodd" clip-rule="evenodd" d="M27.5006 14.3072C27.5017 13.381 27.4179 12.4565 27.2501 11.5449H14.2725V16.7669H21.6866C21.5327 17.592 21.2098 18.378 20.7374 19.0775C20.265 19.777 19.6528 20.3754 18.9379 20.8366V24.2246H23.3893C25.9939 21.8744 27.4967 18.4126 27.4967 14.3047L27.5006 14.3072Z" fill="#3E82F1"/>
<path fill-rule="evenodd" clip-rule="evenodd" d="M14.2759 27.4983C17.9953 27.4983 21.1139 26.2901 23.3927 24.2285L18.9414 20.8405C17.7072 21.6506 16.1291 22.1301 14.2759 22.1301C10.6876 22.1301 7.65085 19.7544 6.56851 16.5635H1.96533V20.0622C3.11201 22.2983 4.87057 24.178 7.04453 25.4911C9.21848 26.8043 11.7222 27.4992 14.2759 27.4983Z" fill="#32A753"/>
<path fill-rule="evenodd" clip-rule="evenodd" d="M6.56827 16.5633C5.99206 14.9003 5.99206 13.0973 6.56827 11.4342V7.93555H1.96509C1.00168 9.81728 0.5 11.8935 0.5 13.9988C0.5 16.1041 1.00168 18.1803 1.96509 20.062L6.56827 16.5633Z" fill="#F9BB00"/>
<path fill-rule="evenodd" clip-rule="evenodd" d="M14.2758 5.8682C16.299 5.8682 18.1146 6.54988 19.5421 7.8878L23.4925 4.01522C21.1072 1.83665 17.9887 0.500001 14.2784 0.500001C11.7246 0.49907 9.22092 1.194 7.04697 2.50716C4.87302 3.82032 3.11446 5.69998 1.96777 7.93612L6.57095 11.4348C7.65329 8.2439 10.6901 5.8682 14.2784 5.8682H14.2758Z" fill="#E74133"/>
</g>
<defs>
<clipPath id="clip0_3285_13075">
<rect width="27" height="27" fill="white" transform="translate(0.5 0.5)"/>
</clipPath>
</defs>
</svg>
