<svg width="24" height="24" viewBox="0 0 24 24" fill="none" xmlns="http://www.w3.org/2000/svg">
<path d="M5 9.97989C5 13.4122 9.9 16.9874 9.9 16.9874C9.9 16.9874 11.3 18 12 18C12.7 18 14.3333 16.875 14.3333 16.875C14.3333 16.875 19 13.4122 19 9.97989C19 6.54755 15.15 4.1617 12 7.87442C8.85 4.1617 5 6.54755 5 9.97989Z" fill="#FF4F64"/>
<path d="M9.9 16.9874L9.45793 17.5933L9.46047 17.5952L9.9 16.9874ZM12 7.87442L11.4281 8.35964C11.5706 8.5276 11.7797 8.62442 12 8.62442C12.2203 8.62442 12.4294 8.5276 12.5719 8.35964L12 7.87442ZM14.3333 16.875L14.7588 17.4927L14.7696 17.4852L14.7803 17.4773L14.3333 16.875ZM9.9 16.9874C10.3421 16.3816 10.3422 16.3817 10.3423 16.3817C10.3423 16.3817 10.3424 16.3818 10.3424 16.3818C10.3424 16.3818 10.3424 16.3818 10.3423 16.3817C10.342 16.3815 10.3415 16.3812 10.3407 16.3806C10.3391 16.3794 10.3363 16.3773 10.3324 16.3745C10.3247 16.3687 10.3125 16.3596 10.2961 16.3473C10.2634 16.3227 10.2141 16.2852 10.1506 16.2356C10.0236 16.1366 9.84003 15.9899 9.61891 15.8027C9.17556 15.4275 8.58665 14.8944 8.00029 14.2612C7.41186 13.6258 6.84049 12.905 6.41953 12.1555C5.99624 11.4019 5.75 10.6637 5.75 9.97989H4.25C4.25 11.0122 4.61626 12.008 5.11172 12.8901C5.60951 13.7764 6.26314 14.593 6.89971 15.2804C7.53835 15.97 8.17444 16.5453 8.64984 16.9477C8.8881 17.1493 9.08739 17.3087 9.2283 17.4186C9.29879 17.4735 9.35477 17.5162 9.39383 17.5456C9.41336 17.5603 9.42866 17.5717 9.43945 17.5797C9.44484 17.5837 9.4491 17.5868 9.45219 17.5891C9.45374 17.5902 9.455 17.5912 9.45595 17.5919C9.45643 17.5922 9.45684 17.5925 9.45717 17.5928C9.45733 17.5929 9.45753 17.593 9.45761 17.5931C9.45778 17.5932 9.45793 17.5933 9.9 16.9874ZM5.75 9.97989C5.75 8.53638 6.55706 7.37478 7.6056 6.94073C8.59699 6.53035 10.0154 6.69458 11.4281 8.35964L12.5719 7.38921C10.8346 5.34154 8.75301 4.84233 7.0319 5.55478C5.36794 6.24357 4.25 7.99106 4.25 9.97989H5.75ZM9.9 16.9874C9.46047 17.5952 9.46055 17.5952 9.46063 17.5953C9.46066 17.5953 9.46075 17.5954 9.46082 17.5954C9.46095 17.5955 9.46111 17.5956 9.46129 17.5957C9.46165 17.596 9.4621 17.5963 9.46263 17.5967C9.46369 17.5975 9.46509 17.5985 9.46683 17.5997C9.47029 17.6022 9.47508 17.6056 9.48113 17.6099C9.49324 17.6186 9.51041 17.6307 9.53212 17.6459C9.57552 17.6762 9.63728 17.7187 9.71325 17.7694C9.86447 17.8704 10.0754 18.0061 10.3119 18.1429C10.5461 18.2784 10.8183 18.4226 11.0901 18.5349C11.3441 18.6399 11.674 18.75 12 18.75V17.25C12.0007 17.25 11.9925 17.25 11.974 17.2472C11.9557 17.2444 11.931 17.2394 11.8996 17.2312C11.8355 17.2143 11.7563 17.1872 11.663 17.1487C11.4755 17.0711 11.2664 16.9622 11.0631 16.8446C10.8621 16.7282 10.6793 16.6108 10.5461 16.5219C10.4799 16.4777 10.4268 16.4411 10.3909 16.416C10.373 16.4035 10.3594 16.3939 10.3507 16.3877C10.3463 16.3846 10.3431 16.3823 10.3412 16.381C10.3403 16.3803 10.3397 16.3798 10.3394 16.3796C10.3393 16.3795 10.3392 16.3795 10.3392 16.3795C10.3392 16.3795 10.3393 16.3795 10.3393 16.3796C10.3393 16.3796 10.3394 16.3796 10.3394 16.3796C10.3395 16.3797 10.3395 16.3797 9.9 16.9874ZM14.3333 16.875C14.7803 17.4773 14.7804 17.4772 14.7806 17.4771C14.7807 17.477 14.7809 17.4768 14.781 17.4767C14.7814 17.4765 14.7818 17.4762 14.7822 17.4758C14.7832 17.4751 14.7844 17.4742 14.7859 17.4731C14.7889 17.4708 14.793 17.4678 14.7982 17.4638C14.8086 17.456 14.8233 17.4449 14.842 17.4305C14.8795 17.4018 14.933 17.3603 15.0004 17.3067C15.1352 17.1997 15.3255 17.0444 15.553 16.8477C16.007 16.4552 16.6142 15.8932 17.2238 15.2166C18.406 13.9047 19.75 11.9968 19.75 9.97989H18.25C18.25 11.3953 17.2607 12.935 16.1095 14.2125C15.5525 14.8307 14.993 15.3489 14.572 15.713C14.362 15.8945 14.1878 16.0366 14.0673 16.1323C14.0071 16.1801 13.9604 16.2163 13.9295 16.24C13.914 16.2519 13.9025 16.2606 13.8952 16.2661C13.8916 16.2688 13.889 16.2708 13.8875 16.2719C13.8868 16.2724 13.8863 16.2728 13.8861 16.2729C13.886 16.273 13.886 16.273 13.8861 16.273C13.8861 16.2729 13.8862 16.2729 13.8862 16.2729C13.8863 16.2728 13.8864 16.2727 14.3333 16.875ZM19.75 9.97989C19.75 7.99106 18.6321 6.24357 16.9681 5.55478C15.247 4.84233 13.1654 5.34154 11.4281 7.38921L12.5719 8.35964C13.9846 6.69458 15.403 6.53035 16.3944 6.94073C17.4429 7.37478 18.25 8.53638 18.25 9.97989H19.75ZM14.3333 16.875C13.9079 16.2573 13.908 16.2573 13.908 16.2573C13.908 16.2573 13.9081 16.2572 13.9081 16.2572C13.9081 16.2572 13.9081 16.2572 13.9081 16.2572C13.9081 16.2572 13.9079 16.2573 13.9077 16.2575C13.9072 16.2578 13.9064 16.2584 13.9052 16.2592C13.9028 16.2609 13.8988 16.2635 13.8935 16.2672C13.8828 16.2744 13.8664 16.2855 13.845 16.2998C13.8022 16.3284 13.7394 16.3699 13.6616 16.4199C13.5053 16.5204 13.2915 16.6533 13.0591 16.7851C12.8244 16.9183 12.5832 17.0431 12.3699 17.1325C12.2636 17.1771 12.1738 17.2088 12.102 17.2286C12.0257 17.2496 11.9952 17.25 12 17.25V18.75C12.3337 18.75 12.6842 18.6273 12.9499 18.5159C13.2397 18.3944 13.5381 18.2379 13.7992 18.0899C14.0626 17.9404 14.301 17.7921 14.4728 17.6817C14.559 17.6262 14.6293 17.5798 14.6785 17.5469C14.7032 17.5304 14.7226 17.5173 14.7362 17.5081C14.7429 17.5035 14.7483 17.4998 14.7521 17.4973C14.754 17.496 14.7555 17.4949 14.7566 17.4942C14.7572 17.4938 14.7576 17.4935 14.758 17.4932C14.7582 17.4931 14.7583 17.493 14.7584 17.4929C14.7585 17.4928 14.7586 17.4928 14.7586 17.4928C14.7587 17.4927 14.7588 17.4927 14.3333 16.875Z" fill="#FF4F64"/>
</svg>
